<?xml version="1.0" encoding="UTF-8"?>
<svg version="1.1" xmlns="http://www.w3.org/2000/svg" width="1024" height="1024">
<path d="M0 0 C2.51126937 2.3606943 2.51126937 2.3606943 5.1875 4.42578125 C7.30908375 6.14408875 8.94599275 7.80576763 10.67578125 9.90234375 C13.60067016 13.33590899 16.70062339 16.49925646 19.92578125 19.65234375 C24.38011916 24.03462954 28.4111773 28.63755592 32.30078125 33.52734375 C34.6779804 36.49884268 37.14183614 39.3839446 39.61328125 42.27734375 C43.94991913 47.48663841 47.78992944 52.85340516 51.41992188 58.57421875 C52.66665776 60.5207632 53.94417695 62.44526033 55.22265625 64.37109375 C73.39365026 92.05439966 87.46925731 122.4999404 96.55078125 154.33984375 C96.81197754 155.24202637 97.07317383 156.14420898 97.34228516 157.07373047 C100.60314924 168.46762059 103.18291764 179.92971359 105.30078125 191.58984375 C105.49945801 192.67668457 105.69813477 193.76352539 105.90283203 194.88330078 C108.8141537 211.6651867 109.93276924 228.26230425 109.86328125 245.27734375 C109.86054703 246.67857986 109.86054703 246.67857986 109.85775757 248.10812378 C109.80579743 264.01520535 109.01905306 279.59975213 106.55078125 295.33984375 C106.30134766 296.94255127 106.30134766 296.94255127 106.046875 298.57763672 C94.40588881 370.50384122 58.76731098 433.93563592 7.80078125 485.21484375 C7.29434082 485.72595703 6.78790039 486.23707031 6.26611328 486.76367188 C-53.78972367 546.5674178 -142.08072923 584.13173427 -227.07421875 584.54296875 C-228.53988281 584.55342224 -228.53988281 584.55342224 -230.03515625 584.56408691 C-233.17322146 584.5813851 -236.31110783 584.58780757 -239.44921875 584.58984375 C-240.52268555 584.59085083 -241.59615234 584.59185791 -242.70214844 584.59289551 C-259.17226496 584.58244493 -275.15331084 583.87770841 -291.44921875 581.33984375 C-293.41383963 581.06869279 -295.37868576 580.79916902 -297.34375 580.53125 C-331.53991644 575.61262332 -364.45306988 564.36127656 -395.44921875 549.33984375 C-396.21443848 548.97503906 -396.9796582 548.61023438 -397.76806641 548.234375 C-426.75439643 534.41307857 -453.17479944 515.71604596 -476.6796875 493.890625 C-478.90149193 491.84430865 -481.14955613 489.85919952 -483.44921875 487.90234375 C-491.71664209 480.72228507 -499.46395363 472.76695718 -506.44921875 464.33984375 C-506.89313965 463.8097168 -507.33706055 463.27958984 -507.79443359 462.73339844 C-519.41507188 448.82470043 -530.14667613 434.34614583 -539.7421875 418.96484375 C-541.33719279 416.31367 -541.33719279 416.31367 -543.44921875 414.33984375 C-544.70307427 411.97929884 -545.90340896 409.61607744 -547.07421875 407.21484375 C-547.79524815 405.74984011 -548.51661131 404.28500071 -549.23828125 402.8203125 C-549.60598633 402.07185059 -549.97369141 401.32338867 -550.35253906 400.55224609 C-551.37530432 398.48895608 -552.41829183 396.43790949 -553.47265625 394.390625 C-584.23403493 334.49967036 -593.90150788 267.76074917 -585.44921875 201.33984375 C-585.33707031 200.42960449 -585.22492188 199.51936523 -585.109375 198.58154297 C-577.92189865 141.89143241 -552.48629156 86.04645511 -517.44921875 41.33984375 C-516.74410156 40.42203125 -516.03898437 39.50421875 -515.3125 38.55859375 C-510.45835655 32.33583785 -505.15075099 26.56096462 -499.78222656 20.78613281 C-497.78753693 18.62193109 -495.8398989 16.41648498 -493.88671875 14.21484375 C-483.63846425 2.81366062 -472.3803129 -7.07720297 -460.44921875 -16.66015625 C-459.54171875 -17.3975 -458.63421875 -18.13484375 -457.69921875 -18.89453125 C-437.24556611 -35.10513893 -414.90618894 -48.34394518 -391.44921875 -59.66015625 C-390.74716309 -59.99885742 -390.04510742 -60.33755859 -389.32177734 -60.68652344 C-387.24248156 -61.68469916 -385.15954226 -62.6746422 -383.07421875 -63.66015625 C-382.11890259 -64.11479248 -382.11890259 -64.11479248 -381.14428711 -64.57861328 C-376.68602053 -66.66015625 -376.68602053 -66.66015625 -374.44921875 -66.66015625 C-374.11921875 -67.32015625 -373.78921875 -67.98015625 -373.44921875 -68.66015625 C-371.55517578 -69.37768555 -371.55517578 -69.37768555 -369.08203125 -70.046875 C-365.36804726 -71.09756753 -361.71196262 -72.22356555 -358.06640625 -73.4921875 C-325.38389972 -84.80230174 -291.71645237 -91.19544825 -257.19921875 -93.28515625 C-256.53889648 -93.32543945 -255.87857422 -93.36572266 -255.19824219 -93.40722656 C-165.85504485 -98.04111998 -74.62072832 -66.41318769 0 0 Z M-381.44921875 -26.66015625 C-382.23039063 -26.27504883 -383.0115625 -25.88994141 -383.81640625 -25.49316406 C-406.64927619 -14.14683001 -428.43511006 0.34568172 -447.44921875 17.33984375 C-447.97386719 17.8080957 -448.49851562 18.27634766 -449.0390625 18.75878906 C-455.36555713 24.43175215 -461.4977596 30.27319507 -467.44921875 36.33984375 C-468.23425781 37.12101562 -469.01929688 37.9021875 -469.828125 38.70703125 C-489.96304309 58.93197133 -506.1762337 82.11659131 -519.44921875 107.33984375 C-519.80467773 108.01225098 -520.16013672 108.6846582 -520.52636719 109.37744141 C-537.52839944 141.77708879 -554.30716219 183.180975 -552.44921875 220.33984375 C-552.11921875 220.99984375 -551.78921875 221.65984375 -551.44921875 222.33984375 C-552.10921875 222.33984375 -552.76921875 222.33984375 -553.44921875 222.33984375 C-558.82185072 285.66014911 -543.44384898 351.08984711 -508.44921875 404.33984375 C-507.99546875 405.03158691 -507.54171875 405.72333008 -507.07421875 406.43603516 C-498.53125528 419.35666066 -489.2441913 431.55392799 -478.69921875 442.90625 C-476.80975824 444.94988524 -474.99579957 447.02788693 -473.19921875 449.15234375 C-465.26638217 458.24517059 -456.59073042 466.7642583 -447.109375 474.2265625 C-445.35208453 475.62258914 -443.62895287 477.06285502 -441.9453125 478.546875 C-427.14675363 491.53600309 -409.89326986 502.25937879 -392.44921875 511.33984375 C-391.82208984 511.66855469 -391.19496094 511.99726562 -390.54882812 512.3359375 C-385.89148603 514.76134159 -381.1819273 517.06579792 -376.44921875 519.33984375 C-375.73411133 519.69014648 -375.01900391 520.04044922 -374.28222656 520.40136719 C-299.92472009 556.62014386 -211.2179955 558.5244661 -133.46972656 532.40283203 C-92.28312046 517.90828928 -54.56251689 495.95838981 -22.44921875 466.33984375 C-20.76258467 464.83887016 -19.07507701 463.33887765 -17.38671875 461.83984375 C-9.92829586 455.10395557 -3.12445975 448.15441831 3.15625 440.30078125 C5.32333917 437.62108535 7.54317607 435.00372935 9.79345703 432.39453125 C14.48347922 426.94212289 18.71423268 421.42508706 22.55078125 415.33984375 C23.34264986 414.15204084 24.13717539 412.96600713 24.93359375 411.78125 C68.0024876 347.27993102 85.07777928 267.8165965 70.19873047 191.46582031 C58.21257559 133.63962324 30.30750899 77.6444562 -12.44921875 36.33984375 C-14.97237941 33.8328572 -17.4769347 31.31135072 -19.95703125 28.76171875 C-26.11820784 22.47180116 -32.50520937 16.77345985 -39.44921875 11.33984375 C-40.90908203 10.17195313 -40.90908203 10.17195313 -42.3984375 8.98046875 C-55.95064963 -1.69806227 -70.47949796 -11.09612138 -85.44921875 -19.66015625 C-86.59003906 -20.31371094 -87.73085938 -20.96726563 -88.90625 -21.640625 C-171.45364066 -67.75179965 -277.44938573 -72.00717957 -381.44921875 -26.66015625 Z " fill="#FEFEFE" transform="translate(751.44921875,252.66015625)"/>
<path d="M0 0 C5.61 0 11.22 0 17 0 C17 0.33 17 0.66 17 1 C52.97 1 88.94 1 126 1 C126 0.67 126 0.34 126 0 C133.59 0 141.18 0 149 0 C149 0.33 149 0.66 149 1 C149.99944704 1.00146656 150.99889408 1.00293312 152.0286274 1.00444412 C176.34038752 1.04102898 200.65200977 1.10046528 224.96365547 1.18390274 C236.72056433 1.22372262 248.47740597 1.25610015 260.234375 1.27099609 C270.4810079 1.28399729 280.72749307 1.31092284 290.97404277 1.35461307 C296.40021041 1.37726225 301.8261956 1.3929086 307.2524147 1.39188385 C312.35947004 1.39113929 317.46612155 1.40900825 322.57307243 1.44116783 C324.44755017 1.44968829 326.32207308 1.45140224 328.19656181 1.44580269 C330.75668704 1.43917352 333.31552335 1.45705661 335.8755188 1.48101807 C336.61677667 1.47325765 337.35803454 1.46549723 338.12175477 1.45750165 C343.20140778 1.54162936 346.08469343 2.80757896 350 6 C353.88170021 11.33080682 353.43515668 17.01664244 353.3984375 23.34765625 C353.40130768 24.43711044 353.40417786 25.52656464 353.40713501 26.64903259 C353.40917165 28.94612143 353.4036699 31.24322778 353.39111328 33.5402832 C353.37503915 37.0539425 353.39098433 40.56645422 353.41015625 44.08007812 C353.40817405 46.3151067 353.40433086 48.55013456 353.3984375 50.78515625 C353.40451019 51.83421646 353.41058289 52.88327667 353.4168396 53.96412659 C353.35241349 60.64958812 352.76032726 64.27908598 347.87444019 69.09521008 C344.27630363 71.47956801 341.39419334 71.56660894 337.22135925 71.52571106 C336.05301597 71.53802447 336.05301597 71.53802447 334.8610698 71.55058664 C332.24591188 71.57324775 329.63159617 71.56743854 327.01635742 71.56176758 C325.13130559 71.57211977 323.24626256 71.58419643 321.3612318 71.59785843 C316.19719124 71.63012503 311.03337459 71.63739059 305.86924505 71.64028478 C300.35577364 71.64745831 294.84241607 71.67696476 289.32901001 71.70347595 C278.64714913 71.75097086 267.96534698 71.77624208 257.28339791 71.79300684 C248.67729612 71.80682134 240.07124903 71.82865104 231.46517944 71.85583496 C170.03079229 72.0478689 108.59486807 72.10908267 47.16080827 71.786946 C41.44693052 71.75722212 35.73304819 71.73363291 30.01913452 71.71206665 C23.15266316 71.68556166 16.28637394 71.64729449 9.42006183 71.59327286 C5.98118712 71.56623392 2.54244214 71.54328468 -0.89652634 71.5327282 C-4.56695096 71.51860739 -8.23673695 71.486081 -11.90698242 71.44824219 C-13.50371402 71.44804439 -13.50371402 71.44804439 -15.13270283 71.4478426 C-24.08429903 71.31918142 -24.08429903 71.31918142 -28 68 C-31.90381416 62.61292839 -31.43479986 56.85043446 -31.3984375 50.46875 C-31.40130768 49.35947144 -31.40417786 48.25019287 -31.40713501 47.1072998 C-31.40917202 44.76732878 -31.40366763 42.42734058 -31.39111328 40.08740234 C-31.37505528 36.51230679 -31.39097516 32.93834177 -31.41015625 29.36328125 C-31.40817375 27.08593501 -31.40432995 24.80858948 -31.3984375 22.53125 C-31.40451019 21.46547729 -31.41058289 20.39970459 -31.4168396 19.30163574 C-31.36546352 13.86200918 -31.307721 9.56449235 -28 5 C-24.52958007 2.26959874 -21.84518402 1.61020067 -17.48046875 1.48828125 C-16.45888672 1.45283203 -15.43730469 1.41738281 -14.38476562 1.38085938 C-13.32966797 1.35830078 -12.27457031 1.33574219 -11.1875 1.3125 C-9.57584961 1.26125977 -9.57584961 1.26125977 -7.93164062 1.20898438 C-5.28786467 1.12673357 -2.64441079 1.05750791 0 1 C0 0.67 0 0.34 0 0 Z " fill="#FEFEFE" transform="translate(351,456)"/>
<path d="M0 0 C10.23 0 20.46 0 31 0 C31 0.33 31 0.66 31 1 C20.77 1 10.54 1 0 1 C0 0.67 0 0.34 0 0 Z " fill="#F6F7F6" transform="translate(393,456)"/>
<path d="M0 0 C6.27 0 12.54 0 19 0 C19 0.33 19 0.66 19 1 C12.73 1 6.46 1 0 1 C0 0.67 0 0.34 0 0 Z " fill="#F6F7F5" transform="translate(457,456)"/>
<path d="M0 0 C5.94 0 11.88 0 18 0 C18 0.33 18 0.66 18 1 C12.06 1 6.12 1 0 1 C0 0.67 0 0.34 0 0 Z " fill="#F6F7F6" transform="translate(638,456)"/>
<path d="M0 0 C5.28 0 10.56 0 16 0 C16 0.33 16 0.66 16 1 C10.72 1 5.44 1 0 1 C0 0.67 0 0.34 0 0 Z " fill="#F6F6F6" transform="translate(572,456)"/>
<path d="M0 0 C3.63 0 7.26 0 11 0 C11 0.33 11 0.66 11 1 C7.37 1 3.74 1 0 1 C0 0.67 0 0.34 0 0 Z " fill="#F5F6F5" transform="translate(533,456)"/>
<path d="M0 0 C3.63 0 7.26 0 11 0 C11 0.33 11 0.66 11 1 C7.37 1 3.74 1 0 1 C0 0.67 0 0.34 0 0 Z " fill="#F6F6F5" transform="translate(509,456)"/>
<path d="M0 0 C3.63 0 7.26 0 11 0 C11 0.33 11 0.66 11 1 C7.37 1 3.74 1 0 1 C0 0.67 0 0.34 0 0 Z " fill="#F5F6F5" transform="translate(433,456)"/>
<path d="M0 0 C3.63 0 7.26 0 11 0 C11 0.33 11 0.66 11 1 C7.37 1 3.74 1 0 1 C0 0.67 0 0.34 0 0 Z " fill="#F7F8F6" transform="translate(377,456)"/>
<path d="M0 0 C3.3 0 6.6 0 10 0 C10 0.33 10 0.66 10 1 C6.7 1 3.4 1 0 1 C0 0.67 0 0.34 0 0 Z " fill="#F5F7F5" transform="translate(550,456)"/>
<path d="M0 0 C2.64 0 5.28 0 8 0 C8 0.33 8 0.66 8 1 C5.36 1 2.72 1 0 1 C0 0.67 0 0.34 0 0 Z " fill="#F6F7F6" transform="translate(629,456)"/>
<path d="M0 0 C2.31 0 4.62 0 7 0 C7 0.33 7 0.66 7 1 C4.69 1 2.38 1 0 1 C0 0.67 0 0.34 0 0 Z " fill="#F5F6F5" transform="translate(617,456)"/>
<path d="M0 0 C2.31 0 4.62 0 7 0 C7 0.33 7 0.66 7 1 C4.69 1 2.38 1 0 1 C0 0.67 0 0.34 0 0 Z " fill="#F5F7F5" transform="translate(501,456)"/>
<path d="M0 0 C2.31 0 4.62 0 7 0 C7 0.33 7 0.66 7 1 C4.69 1 2.38 1 0 1 C0 0.67 0 0.34 0 0 Z " fill="#F5F6F4" transform="translate(445,456)"/>
<path d="M0 0 C0.33 0 0.66 0 1 0 C1 1.98 1 3.96 1 6 C0.67 6 0.34 6 0 6 C0 4.02 0 2.04 0 0 Z " fill="#F6F7F7" transform="translate(161,499)"/>
<path d="M0 0 C1.98 0 3.96 0 6 0 C6 0.33 6 0.66 6 1 C4.02 1 2.04 1 0 1 C0 0.67 0 0.34 0 0 Z " fill="#F6F8F6" transform="translate(565,456)"/>
<path d="M0 0 C1.98 0 3.96 0 6 0 C6 0.33 6 0.66 6 1 C4.02 1 2.04 1 0 1 C0 0.67 0 0.34 0 0 Z " fill="#F4F7F5" transform="translate(526,456)"/>
<path d="M0 0 C1.98 0 3.96 0 6 0 C6 0.33 6 0.66 6 1 C4.02 1 2.04 1 0 1 C0 0.67 0 0.34 0 0 Z " fill="#F5F6F5" transform="translate(337,456)"/>
<path d="M0 0 C0.33 0 0.66 0 1 0 C1 1.65 1 3.3 1 5 C0.67 5 0.34 5 0 5 C0 3.35 0 1.7 0 0 Z " fill="#F9F9F9" transform="translate(199,480)"/>
<path d="M0 0 C1.65 0 3.3 0 5 0 C5 0.33 5 0.66 5 1 C3.35 1 1.7 1 0 1 C0 0.67 0 0.34 0 0 Z " fill="#F5F6F6" transform="translate(602,456)"/>
<path d="M0 0 C1.65 0 3.3 0 5 0 C5 0.33 5 0.66 5 1 C3.35 1 1.7 1 0 1 C0 0.67 0 0.34 0 0 Z " fill="#F5F7F6" transform="translate(589,456)"/>
<path d="M0 0 C4 1 4 1 4 1 Z " fill="#F2F4F3" transform="translate(499,838)"/>
<path d="M0 0 C4 1 4 1 4 1 Z " fill="#F2F3F3" transform="translate(491,838)"/>
<path d="M0 0 C1 4 1 4 1 4 Z " fill="#F3F6F5" transform="translate(162,521)"/>
<path d="M0 0 C4 1 4 1 4 1 Z " fill="#F5F7F5" transform="translate(668,456)"/>
<path d="M0 0 C4 1 4 1 4 1 Z " fill="#F6F7F6" transform="translate(545,456)"/>
<path d="M0 0 C4 1 4 1 4 1 Z " fill="#F6F7F5" transform="translate(521,456)"/>
<path d="M0 0 C4 1 4 1 4 1 Z " fill="#F6F8F7" transform="translate(372,456)"/>
<path d="M0 0 C4 1 4 1 4 1 Z " fill="#F5F7F5" transform="translate(344,456)"/>
<path d="M0 0 C3 1 3 1 3 1 Z " fill="#F6F8F8" transform="translate(437,792)"/>
<path d="" fill="#F6F7F7" transform="translate(0,0)"/>
<path d="" fill="#F6F8F8" transform="translate(0,0)"/>
<path d="M0 0 C3 1 3 1 3 1 Z " fill="#F2F4F3" transform="translate(685,456)"/>
<path d="M0 0 C3 1 3 1 3 1 Z " fill="#F6F7F6" transform="translate(661,456)"/>
<path d="M0 0 C3 1 3 1 3 1 Z " fill="#F6F8F7" transform="translate(657,456)"/>
<path d="M0 0 C3 1 3 1 3 1 Z " fill="#F6F7F6" transform="translate(625,456)"/>
<path d="M0 0 C3 1 3 1 3 1 Z " fill="#F7F6F5" transform="translate(613,456)"/>
<path d="M0 0 C3 1 3 1 3 1 Z " fill="#F6F7F6" transform="translate(596,456)"/>
<path d="M0 0 C3 1 3 1 3 1 Z " fill="#F7F8F6" transform="translate(561,456)"/>
<path d="M0 0 C3 1 3 1 3 1 Z " fill="#F6F7F5" transform="translate(425,456)"/>
<path d="M0 0 C3 1 3 1 3 1 Z " fill="#F6F8F7" transform="translate(389,456)"/>
<path d="M0 0 C3 1 3 1 3 1 Z " fill="#F6F7F7" transform="translate(555,198)"/>
<path d="M0 0 C2 1 2 1 2 1 Z " fill="#F2F3F4" transform="translate(507,838)"/>
<path d="M0 0 C2 1 2 1 2 1 Z " fill="#F4F5F4" transform="translate(496,838)"/>
<path d="M0 0 C2 1 2 1 2 1 Z " fill="#F7F9F9" transform="translate(389,776)"/>
<path d="M0 0 C2 1 2 1 2 1 Z " fill="#F9F9F9" transform="translate(720,723)"/>
<path d="" fill="#F5F6F5" transform="translate(0,0)"/>
<path d="" fill="#F4F4F6" transform="translate(0,0)"/>
<path d="" fill="#F4F4F5" transform="translate(0,0)"/>
<path d="" fill="#F6F5F7" transform="translate(0,0)"/>
<path d="" fill="#FAFCFC" transform="translate(0,0)"/>
<path d="" fill="#F9FAFA" transform="translate(0,0)"/>
<path d="M0 0 C2 1 2 1 2 1 Z " fill="#F6F5F5" transform="translate(677,456)"/>
<path d="M0 0 C2 1 2 1 2 1 Z " fill="#F6F6F6" transform="translate(673,456)"/>
<path d="M0 0 C2 1 2 1 2 1 Z " fill="#F5F5F5" transform="translate(453,456)"/>
<path d="M0 0 C2 1 2 1 2 1 Z " fill="#F6F7F7" transform="translate(369,456)"/>
<path d="" fill="#F6F6F6" transform="translate(0,0)"/>
<path d="" fill="#FAFAFB" transform="translate(0,0)"/>
<path d="" fill="#F8FAFA" transform="translate(0,0)"/>
<path d="M0 0 C2 1 2 1 2 1 Z " fill="#F7F8F9" transform="translate(633,219)"/>
<path d="M0 0 C2 1 2 1 2 1 Z " fill="#F4F5F5" transform="translate(600,207)"/>
<path d="M0 0 C2 1 2 1 2 1 Z " fill="#F6F7F7" transform="translate(595,206)"/>
<path d="M0 0 C2 1 2 1 2 1 Z " fill="#F5F8F8" transform="translate(592,205)"/>
<path d="M0 0 C2 1 2 1 2 1 Z " fill="#F1F3F3" transform="translate(630,178)"/>
<path d="M0 0 C2 1 2 1 2 1 Z " fill="#F1F3F2" transform="translate(598,168)"/>
<path d="" fill="#000000" transform="translate(0,0)"/>
<path d="" fill="#000000" transform="translate(0,0)"/>
<path d="" fill="#000000" transform="translate(0,0)"/>
<path d="" fill="#000000" transform="translate(0,0)"/>
<path d="" fill="#000000" transform="translate(0,0)"/>
<path d="" fill="#1D1E1C" transform="translate(0,0)"/>
<path d="" fill="#000000" transform="translate(0,0)"/>
<path d="" fill="#020000" transform="translate(0,0)"/>
<path d="" fill="#040603" transform="translate(0,0)"/>
<path d="" fill="#000000" transform="translate(0,0)"/>
<path d="" fill="#000000" transform="translate(0,0)"/>
<path d="" fill="#000000" transform="translate(0,0)"/>
<path d="" fill="#F0F3F3" transform="translate(0,0)"/>
<path d="" fill="#F2F5F5" transform="translate(0,0)"/>
<path d="" fill="#F4F6F6" transform="translate(0,0)"/>
<path d="" fill="#F2F1F4" transform="translate(0,0)"/>
<path d="" fill="#F1F2F4" transform="translate(0,0)"/>
<path d="" fill="#F2F3F3" transform="translate(0,0)"/>
<path d="" fill="#F4F3F4" transform="translate(0,0)"/>
<path d="" fill="#F3F4F4" transform="translate(0,0)"/>
<path d="" fill="#F2F3F4" transform="translate(0,0)"/>
<path d="" fill="#F3F5F3" transform="translate(0,0)"/>
<path d="" fill="#F3F3F4" transform="translate(0,0)"/>
<path d="" fill="#F3F3F3" transform="translate(0,0)"/>
<path d="" fill="#F1F2F3" transform="translate(0,0)"/>
<path d="" fill="#F0F2F0" transform="translate(0,0)"/>
<path d="" fill="#F2F2F3" transform="translate(0,0)"/>
<path d="" fill="#F0F1F1" transform="translate(0,0)"/>
<path d="" fill="#F1F2F1" transform="translate(0,0)"/>
<path d="" fill="#000000" transform="translate(0,0)"/>
<path d="" fill="#F1F2F3" transform="translate(0,0)"/>
<path d="" fill="#F0F3F3" transform="translate(0,0)"/>
<path d="" fill="#F0F1F2" transform="translate(0,0)"/>
<path d="" fill="#F9FAF8" transform="translate(0,0)"/>
<path d="" fill="#F9FAFA" transform="translate(0,0)"/>
<path d="" fill="#F8F8F9" transform="translate(0,0)"/>
<path d="" fill="#F0F2F1" transform="translate(0,0)"/>
<path d="" fill="#EFF2F2" transform="translate(0,0)"/>
<path d="" fill="#F0F2F3" transform="translate(0,0)"/>
<path d="" fill="#F8F9F8" transform="translate(0,0)"/>
<path d="" fill="#F6F7F7" transform="translate(0,0)"/>
<path d="" fill="#FAFAF9" transform="translate(0,0)"/>
<path d="" fill="#F9F9F8" transform="translate(0,0)"/>
<path d="" fill="#F0F1F3" transform="translate(0,0)"/>
<path d="" fill="#F8F8F9" transform="translate(0,0)"/>
<path d="" fill="#F6F9F8" transform="translate(0,0)"/>
<path d="" fill="#F4F6F4" transform="translate(0,0)"/>
<path d="" fill="#F6F8F8" transform="translate(0,0)"/>
<path d="" fill="#FBFCFA" transform="translate(0,0)"/>
<path d="" fill="#F2F3F2" transform="translate(0,0)"/>
<path d="" fill="#F9FBFA" transform="translate(0,0)"/>
<path d="" fill="#F7F9F9" transform="translate(0,0)"/>
<path d="" fill="#F2F4F4" transform="translate(0,0)"/>
<path d="" fill="#F7F9FA" transform="translate(0,0)"/>
<path d="" fill="#F9F9FB" transform="translate(0,0)"/>
<path d="" fill="#F6F9F8" transform="translate(0,0)"/>
<path d="" fill="#F7FAFB" transform="translate(0,0)"/>
<path d="" fill="#F8FAFA" transform="translate(0,0)"/>
<path d="" fill="#F2F2F3" transform="translate(0,0)"/>
<path d="" fill="#F7FAF9" transform="translate(0,0)"/>
<path d="" fill="#F6F9F9" transform="translate(0,0)"/>
<path d="" fill="#F9F9FB" transform="translate(0,0)"/>
<path d="" fill="#F8F8F9" transform="translate(0,0)"/>
<path d="" fill="#F3F4F5" transform="translate(0,0)"/>
<path d="" fill="#F8F5F6" transform="translate(0,0)"/>
<path d="" fill="#FAFAF8" transform="translate(0,0)"/>
<path d="" fill="#F1F3F2" transform="translate(0,0)"/>
<path d="" fill="#F9F9F9" transform="translate(0,0)"/>
<path d="" fill="#F3F4F4" transform="translate(0,0)"/>
<path d="" fill="#EFEFF0" transform="translate(0,0)"/>
<path d="" fill="#F2F4F5" transform="translate(0,0)"/>
<path d="" fill="#F3F4F4" transform="translate(0,0)"/>
<path d="" fill="#F9FAFA" transform="translate(0,0)"/>
<path d="" fill="#F3F5F4" transform="translate(0,0)"/>
<path d="" fill="#F7F8F7" transform="translate(0,0)"/>
<path d="" fill="#F8F8F8" transform="translate(0,0)"/>
<path d="" fill="#F4F4F4" transform="translate(0,0)"/>
<path d="" fill="#F3F4F5" transform="translate(0,0)"/>
<path d="" fill="#F2F3F5" transform="translate(0,0)"/>
<path d="" fill="#F9F9F8" transform="translate(0,0)"/>
<path d="" fill="#8F8F8E" transform="translate(0,0)"/>
<path d="" fill="#212121" transform="translate(0,0)"/>
<path d="" fill="#F5F6F5" transform="translate(0,0)"/>
<path d="" fill="#F8F9F9" transform="translate(0,0)"/>
<path d="" fill="#F9FBFA" transform="translate(0,0)"/>
<path d="" fill="#F9F9F9" transform="translate(0,0)"/>
<path d="" fill="#F3F5F5" transform="translate(0,0)"/>
<path d="" fill="#FAFBFB" transform="translate(0,0)"/>
<path d="" fill="#F1F4F2" transform="translate(0,0)"/>
<path d="" fill="#FAFAF9" transform="translate(0,0)"/>
<path d="" fill="#F3F5F6" transform="translate(0,0)"/>
<path d="" fill="#F5F5F5" transform="translate(0,0)"/>
<path d="" fill="#F1F3F4" transform="translate(0,0)"/>
<path d="" fill="#FAF9FA" transform="translate(0,0)"/>
<path d="" fill="#F2F3F4" transform="translate(0,0)"/>
<path d="" fill="#F4F6F7" transform="translate(0,0)"/>
<path d="" fill="#F5F6F5" transform="translate(0,0)"/>
<path d="" fill="#FDFBFC" transform="translate(0,0)"/>
<path d="" fill="#F7F7F6" transform="translate(0,0)"/>
<path d="" fill="#FAF8FA" transform="translate(0,0)"/>
<path d="" fill="#FDFDFC" transform="translate(0,0)"/>
<path d="" fill="#F8FAFA" transform="translate(0,0)"/>
<path d="" fill="#F9FAFB" transform="translate(0,0)"/>
<path d="" fill="#F5F4F6" transform="translate(0,0)"/>
<path d="" fill="#FAFAFB" transform="translate(0,0)"/>
<path d="" fill="#F4F5F5" transform="translate(0,0)"/>
<path d="" fill="#F6F7F7" transform="translate(0,0)"/>
<path d="" fill="#ECEFEF" transform="translate(0,0)"/>
<path d="" fill="#F6F4F4" transform="translate(0,0)"/>
<path d="" fill="#FBFAFC" transform="translate(0,0)"/>
<path d="" fill="#FAFBFA" transform="translate(0,0)"/>
<path d="" fill="#F6F6F9" transform="translate(0,0)"/>
<path d="" fill="#F7F8F6" transform="translate(0,0)"/>
<path d="" fill="#F5F6F4" transform="translate(0,0)"/>
<path d="" fill="#F0F0F0" transform="translate(0,0)"/>
<path d="" fill="#EEEFF0" transform="translate(0,0)"/>
<path d="" fill="#F1F5F3" transform="translate(0,0)"/>
<path d="" fill="#F5F5F4" transform="translate(0,0)"/>
<path d="" fill="#F6F9F5" transform="translate(0,0)"/>
<path d="" fill="#F6F6F4" transform="translate(0,0)"/>
<path d="" fill="#F4F9F6" transform="translate(0,0)"/>
<path d="" fill="#F7F6F5" transform="translate(0,0)"/>
<path d="" fill="#F1F3F2" transform="translate(0,0)"/>
<path d="" fill="#F4F5F4" transform="translate(0,0)"/>
<path d="" fill="#6B6B6C" transform="translate(0,0)"/>
<path d="" fill="#FAFAFC" transform="translate(0,0)"/>
<path d="" fill="#FAFBFC" transform="translate(0,0)"/>
<path d="" fill="#FBFAFC" transform="translate(0,0)"/>
<path d="" fill="#F4F5F6" transform="translate(0,0)"/>
<path d="" fill="#F6F6F7" transform="translate(0,0)"/>
<path d="" fill="#F9FAF9" transform="translate(0,0)"/>
<path d="" fill="#F4F3F5" transform="translate(0,0)"/>
<path d="" fill="#F9F9F8" transform="translate(0,0)"/>
<path d="" fill="#F3F5F5" transform="translate(0,0)"/>
<path d="" fill="#F3F5F4" transform="translate(0,0)"/>
<path d="" fill="#F9FDFB" transform="translate(0,0)"/>
<path d="" fill="#F4F4F4" transform="translate(0,0)"/>
<path d="" fill="#F4F4F4" transform="translate(0,0)"/>
<path d="" fill="#F9FAFA" transform="translate(0,0)"/>
<path d="" fill="#F1F3F3" transform="translate(0,0)"/>
<path d="" fill="#FBFBFB" transform="translate(0,0)"/>
<path d="" fill="#F9FCFB" transform="translate(0,0)"/>
<path d="" fill="#F9FAFA" transform="translate(0,0)"/>
<path d="" fill="#F3F4F4" transform="translate(0,0)"/>
<path d="" fill="#F7F5F8" transform="translate(0,0)"/>
<path d="" fill="#F3F3F2" transform="translate(0,0)"/>
<path d="" fill="#FBFBFA" transform="translate(0,0)"/>
<path d="" fill="#FBFAFA" transform="translate(0,0)"/>
<path d="" fill="#F4F5F5" transform="translate(0,0)"/>
<path d="" fill="#F6F5F6" transform="translate(0,0)"/>
<path d="" fill="#F3F3F4" transform="translate(0,0)"/>
<path d="" fill="#F2F4F4" transform="translate(0,0)"/>
<path d="" fill="#F8FAFA" transform="translate(0,0)"/>
<path d="" fill="#F9FAFB" transform="translate(0,0)"/>
<path d="" fill="#FBFBFB" transform="translate(0,0)"/>
<path d="" fill="#191B1A" transform="translate(0,0)"/>
<path d="" fill="#8F8F91" transform="translate(0,0)"/>
<path d="" fill="#FAF9F9" transform="translate(0,0)"/>
<path d="" fill="#F8FAFA" transform="translate(0,0)"/>
<path d="" fill="#F4F5F5" transform="translate(0,0)"/>
<path d="" fill="#E1E2E2" transform="translate(0,0)"/>
<path d="" fill="#F8FAFA" transform="translate(0,0)"/>
<path d="" fill="#F2F3F3" transform="translate(0,0)"/>
<path d="" fill="#1A1B19" transform="translate(0,0)"/>
<path d="" fill="#F3F5F4" transform="translate(0,0)"/>
<path d="" fill="#F2F4F5" transform="translate(0,0)"/>
<path d="" fill="#F7F7F6" transform="translate(0,0)"/>
<path d="" fill="#F8F9FA" transform="translate(0,0)"/>
<path d="" fill="#F1F2F2" transform="translate(0,0)"/>
<path d="" fill="#F3F4F4" transform="translate(0,0)"/>
<path d="" fill="#F8F9FA" transform="translate(0,0)"/>
<path d="" fill="#F9F8FA" transform="translate(0,0)"/>
<path d="" fill="#F8F8F8" transform="translate(0,0)"/>
<path d="" fill="#F2F3F3" transform="translate(0,0)"/>
<path d="" fill="#F5F6F7" transform="translate(0,0)"/>
<path d="" fill="#F8FAF9" transform="translate(0,0)"/>
<path d="" fill="#F7F9F8" transform="translate(0,0)"/>
<path d="" fill="#F1F3F3" transform="translate(0,0)"/>
<path d="" fill="#F6F7FA" transform="translate(0,0)"/>
<path d="" fill="#F7F7F8" transform="translate(0,0)"/>
<path d="" fill="#F7F8F8" transform="translate(0,0)"/>
<path d="" fill="#F8F8FB" transform="translate(0,0)"/>
<path d="" fill="#F6F9F9" transform="translate(0,0)"/>
<path d="" fill="#F6F9F9" transform="translate(0,0)"/>
<path d="" fill="#F8F7F8" transform="translate(0,0)"/>
<path d="" fill="#F8F9F9" transform="translate(0,0)"/>
<path d="" fill="#F4F5F5" transform="translate(0,0)"/>
<path d="" fill="#F3F4F5" transform="translate(0,0)"/>
<path d="" fill="#F7F7F7" transform="translate(0,0)"/>
<path d="" fill="#F3F4F6" transform="translate(0,0)"/>
<path d="" fill="#F7F6F8" transform="translate(0,0)"/>
<path d="" fill="#F6F6F7" transform="translate(0,0)"/>
<path d="" fill="#F4F5F4" transform="translate(0,0)"/>
<path d="" fill="#F1F2F4" transform="translate(0,0)"/>
<path d="" fill="#F6F9FA" transform="translate(0,0)"/>
<path d="" fill="#F0F2F2" transform="translate(0,0)"/>
<path d="" fill="#F7F7F6" transform="translate(0,0)"/>
<path d="" fill="#F2F2F3" transform="translate(0,0)"/>
<path d="" fill="#F2F3F5" transform="translate(0,0)"/>
<path d="" fill="#F5F7F8" transform="translate(0,0)"/>
<path d="" fill="#F3F3F3" transform="translate(0,0)"/>
<path d="" fill="#F2F3F5" transform="translate(0,0)"/>
<path d="" fill="#F6F8F7" transform="translate(0,0)"/>
<path d="" fill="#F4F6F8" transform="translate(0,0)"/>
<path d="" fill="#F4F4F4" transform="translate(0,0)"/>
<path d="" fill="#F3F4F4" transform="translate(0,0)"/>
<path d="" fill="#F2F2F4" transform="translate(0,0)"/>
<path d="" fill="#F7F8F7" transform="translate(0,0)"/>
<path d="" fill="#F6F7F8" transform="translate(0,0)"/>
<path d="" fill="#F6F8F7" transform="translate(0,0)"/>
<path d="" fill="#F6F8F8" transform="translate(0,0)"/>
<path d="" fill="#F7F8F7" transform="translate(0,0)"/>
<path d="" fill="#F6F7F8" transform="translate(0,0)"/>
<path d="" fill="#F3F4F4" transform="translate(0,0)"/>
<path d="" fill="#F2F5F2" transform="translate(0,0)"/>
<path d="" fill="#F1F4F3" transform="translate(0,0)"/>
<path d="" fill="#F0F3F3" transform="translate(0,0)"/>
<path d="" fill="#F1F2F2" transform="translate(0,0)"/>
<path d="" fill="#F2F4F5" transform="translate(0,0)"/>
<path d="" fill="#131212" transform="translate(0,0)"/>
<path d="" fill="#F2F5F4" transform="translate(0,0)"/>
<path d="" fill="#F2F2F4" transform="translate(0,0)"/>
<path d="" fill="#F3F5F7" transform="translate(0,0)"/>
<path d="" fill="#F3F3F3" transform="translate(0,0)"/>
<path d="" fill="#F2F5F4" transform="translate(0,0)"/>
<path d="" fill="#4E4E4F" transform="translate(0,0)"/>
<path d="" fill="#000000" transform="translate(0,0)"/>
<path d="" fill="#090C09" transform="translate(0,0)"/>
<path d="" fill="#424343" transform="translate(0,0)"/>
<path d="" fill="#000000" transform="translate(0,0)"/>
<path d="" fill="#292829" transform="translate(0,0)"/>
<path d="" fill="#090A08" transform="translate(0,0)"/>
<path d="" fill="#171717" transform="translate(0,0)"/>
<path d="" fill="#000000" transform="translate(0,0)"/>
<path d="" fill="#272625" transform="translate(0,0)"/>
</svg>
